<svg width="373" height="92" viewBox="0 0 373 92" fill="none" xmlns="http://www.w3.org/2000/svg">
<line x1="146.5" y1="2.18557e-08" x2="146.5" y2="92" stroke="#A8A8A8"/>
<path d="M21.3438 47.8125L19.5938 54H0.4375V53.3438C1.08333 53.3021 1.60417 53.2292 2 53.125C2.41667 53.0208 2.72917 52.8542 2.9375 52.625C3.16667 52.3958 3.32292 52.0833 3.40625 51.6875C3.48958 51.2917 3.53125 50.7812 3.53125 50.1562V34.2812C3.53125 33.6562 3.48958 33.1458 3.40625 32.75C3.34375 32.3542 3.19792 32.0417 2.96875 31.8125C2.73958 31.5833 2.41667 31.4167 2 31.3125C1.60417 31.2083 1.08333 31.1354 0.4375 31.0938V30.375H10.4688V31.0938C9.76042 31.1354 9.1875 31.2083 8.75 31.3125C8.3125 31.3958 7.97917 31.5625 7.75 31.8125C7.52083 32.0417 7.36458 32.3542 7.28125 32.75C7.19792 33.1458 7.15625 33.6562 7.15625 34.2812V51.1562C7.15625 51.4688 7.1875 51.7292 7.25 51.9375C7.33333 52.125 7.48958 52.2708 7.71875 52.375C7.94792 52.4792 8.26042 52.5521 8.65625 52.5938C9.05208 52.6146 9.58333 52.625 10.25 52.625H12.625C14.1458 52.625 15.4062 52.4479 16.4062 52.0938C17.4271 51.7396 18.2604 51.1979 18.9062 50.4688C19.1562 50.1771 19.3958 49.8125 19.625 49.375C19.875 48.9375 20.1458 48.4167 20.4375 47.8125H21.3438ZM36.7412 48.4062C35.9912 50.3646 34.9704 51.8438 33.6787 52.8438C32.4079 53.8438 30.9079 54.3438 29.1787 54.3438C28.1579 54.3438 27.2308 54.1562 26.3975 53.7812C25.585 53.4062 24.8871 52.875 24.3037 52.1875C23.7204 51.5 23.2725 50.6667 22.96 49.6875C22.6475 48.7083 22.4912 47.6042 22.4912 46.375C22.4912 45.0625 22.6683 43.8646 23.0225 42.7812C23.3975 41.6979 23.9079 40.7708 24.5537 40C25.2204 39.2083 26.0121 38.5938 26.9287 38.1562C27.8454 37.7188 28.8558 37.5 29.96 37.5C30.8975 37.5 31.7517 37.6771 32.5225 38.0312C33.3142 38.3854 33.9808 38.8854 34.5225 39.5312C34.7517 39.8229 34.9392 40.1146 35.085 40.4062C35.2517 40.6979 35.3871 41.0208 35.4912 41.375C35.6162 41.7292 35.7204 42.125 35.8037 42.5625C35.8871 43 35.9704 43.5 36.0537 44.0625H25.085C25.1267 45.2083 25.2204 46.1562 25.3662 46.9062C25.5329 47.6354 25.7933 48.3438 26.1475 49.0312C27.1683 50.9479 28.6683 51.9062 30.6475 51.9062C31.7933 51.9062 32.7829 51.625 33.6162 51.0625C34.4704 50.5 35.3246 49.5417 36.1787 48.1875L36.7412 48.4062ZM32.4287 42.875C32.1996 41.3333 31.8246 40.2708 31.3037 39.6875C30.8037 39.0833 30.0121 38.7812 28.9287 38.7812C27.8246 38.7812 26.96 39.1042 26.335 39.75C25.7308 40.3958 25.335 41.4375 25.1475 42.875H32.4287ZM51.9825 48.75C51.6908 49.3125 51.42 49.8021 51.17 50.2188C50.9408 50.6146 50.7117 50.9792 50.4825 51.3125C50.2742 51.625 50.0554 51.9062 49.8262 52.1562C49.5971 52.4062 49.3471 52.6354 49.0762 52.8438C47.8262 53.8438 46.4408 54.3438 44.92 54.3438C43.9408 54.3438 43.0346 54.1562 42.2012 53.7812C41.3679 53.3854 40.6492 52.8333 40.045 52.125C39.4617 51.4167 39.0033 50.5833 38.67 49.625C38.3367 48.6667 38.17 47.6042 38.17 46.4375C38.17 44.9583 38.42 43.6042 38.92 42.375C39.4408 41.125 40.1804 40.1042 41.1387 39.3125C41.8679 38.7083 42.6387 38.2604 43.4512 37.9688C44.2846 37.6562 45.1283 37.5 45.9825 37.5C46.7325 37.5 47.4408 37.6042 48.1075 37.8125C48.7742 38 49.3575 38.2604 49.8575 38.5938C50.3575 38.9271 50.7533 39.3229 51.045 39.7812C51.3367 40.2188 51.4825 40.6875 51.4825 41.1875C51.4825 41.6042 51.3158 41.9688 50.9825 42.2812C50.67 42.5938 50.2846 42.75 49.8262 42.75C49.4096 42.75 49.0554 42.5938 48.7637 42.2812C48.4721 41.9688 48.2533 41.5521 48.1075 41.0312L47.8887 40.25C47.7221 39.5833 47.4825 39.1354 47.17 38.9062C46.8783 38.6771 46.4096 38.5625 45.7637 38.5625C45.0346 38.5625 44.3679 38.7188 43.7637 39.0312C43.1804 39.3229 42.6804 39.75 42.2637 40.3125C41.8471 40.875 41.5137 41.5417 41.2637 42.3125C41.0346 43.0833 40.92 43.9375 40.92 44.875C40.92 45.875 41.0554 46.8021 41.3262 47.6562C41.5971 48.5104 41.9721 49.2396 42.4512 49.8438C42.9304 50.4479 43.5033 50.9271 44.17 51.2812C44.8575 51.6146 45.6075 51.7812 46.42 51.7812C47.4408 51.7812 48.3262 51.5417 49.0762 51.0625C49.8262 50.5625 50.6283 49.6875 51.4825 48.4375L51.9825 48.75ZM62.0675 39.0625H58.4425V49.3125C58.4425 50.4583 58.5883 51.2812 58.88 51.7812C59.1717 52.2604 59.6404 52.5 60.2863 52.5C60.7029 52.5 61.0675 52.4167 61.38 52.25C61.6925 52.0625 62.0571 51.7292 62.4738 51.25L62.9113 51.6875C61.7863 53.4583 60.3488 54.3438 58.5988 54.3438C56.4946 54.3438 55.4425 52.8333 55.4425 49.8125V39.0625H53.5675C53.4842 39.0417 53.4425 38.9688 53.4425 38.8438C53.4425 38.6354 53.6404 38.4062 54.0363 38.1562C54.9738 37.6146 56.13 36.3438 57.505 34.3438C57.6092 34.1771 57.7238 34.0208 57.8488 33.875C57.9946 33.7083 58.1196 33.5312 58.2238 33.3438C58.3071 33.3438 58.3592 33.375 58.38 33.4375C58.4217 33.5 58.4425 33.625 58.4425 33.8125V37.9375H62.0675V39.0625ZM79.84 52.75C78.9233 52.9792 78.1004 53.2083 77.3713 53.4375C76.6421 53.6667 75.8192 53.9583 74.9025 54.3125L74.8088 54.25V51.2812L73.2463 52.8125C72.7671 53.3125 72.2046 53.6979 71.5588 53.9688C70.9129 54.2188 70.2567 54.3438 69.59 54.3438C68.2775 54.3438 67.2254 53.9271 66.4338 53.0938C65.6629 52.2604 65.2775 51.1354 65.2775 49.7188V40.7812C65.2775 39.9479 65.1213 39.375 64.8088 39.0625C64.5171 38.75 63.9338 38.5625 63.0588 38.5V37.875H68.2463V49.5938C68.2463 50.3438 68.4963 50.9896 68.9963 51.5312C69.4963 52.0521 70.1004 52.3125 70.8088 52.3125C71.3504 52.3125 71.8921 52.2083 72.4338 52C72.9963 51.7708 73.5171 51.4375 73.9963 51C74.2254 50.8333 74.3921 50.6146 74.4963 50.3438C74.6004 50.0521 74.6525 49.6667 74.6525 49.1875V40.75C74.6525 40.3125 74.6108 39.9583 74.5275 39.6875C74.465 39.3958 74.3296 39.1667 74.1213 39C73.9338 38.8333 73.6629 38.7188 73.3088 38.6562C72.9546 38.5729 72.5067 38.5208 71.965 38.5V37.875H77.6213V50.1875C77.6213 51.0208 77.7567 51.5729 78.0275 51.8438C78.2983 52.0938 78.84 52.2188 79.6525 52.2188H79.84V52.75ZM80.675 39.5625C81.1958 39.375 81.675 39.2083 82.1125 39.0625C82.55 38.8958 82.9667 38.7396 83.3625 38.5938C83.7792 38.4271 84.1854 38.2708 84.5813 38.125C84.9979 37.9583 85.4458 37.7812 85.925 37.5938L86.1438 37.6562V40.9375C86.5813 40.2917 86.9771 39.7604 87.3313 39.3438C87.6854 38.9062 88.0292 38.5625 88.3625 38.3125C88.6958 38.0417 89.0188 37.8542 89.3313 37.75C89.6646 37.6458 90.0188 37.5938 90.3938 37.5938C90.9979 37.5938 91.4771 37.7708 91.8313 38.125C92.1854 38.4583 92.3625 38.9062 92.3625 39.4688C92.3625 39.9896 92.2375 40.3958 91.9875 40.6875C91.7375 40.9583 91.4042 41.0938 90.9875 41.0938C90.7583 41.0938 90.5292 41.0521 90.3 40.9688C90.0917 40.8646 89.8417 40.6667 89.55 40.375C89.3625 40.2083 89.1854 40.0833 89.0188 40C88.8521 39.9167 88.7167 39.875 88.6125 39.875C88.3625 39.875 88.0917 39.9792 87.8 40.1875C87.5292 40.375 87.2688 40.6146 87.0188 40.9062C86.7688 41.1979 86.5604 41.5104 86.3938 41.8438C86.2271 42.1771 86.1438 42.4896 86.1438 42.7812V50.8125C86.1438 51.3125 86.1854 51.7292 86.2688 52.0625C86.3521 52.3958 86.5083 52.6667 86.7375 52.875C86.9667 53.0625 87.2792 53.2083 87.675 53.3125C88.0708 53.4167 88.5708 53.4792 89.175 53.5V54H80.5813V53.5C81.1438 53.3958 81.5917 53.2917 81.925 53.1875C82.2792 53.0625 82.5396 52.9167 82.7063 52.75C82.8938 52.5833 83.0083 52.3646 83.05 52.0938C83.1125 51.8021 83.1438 51.4375 83.1438 51V42.0938C83.1438 41.3021 83.05 40.75 82.8625 40.4375C82.675 40.1042 82.3625 39.9375 81.925 39.9375C81.6958 39.9375 81.4875 39.9479 81.3 39.9688C81.1333 39.9896 80.925 40.0312 80.675 40.0938V39.5625ZM109.104 38.5C108.687 38.5417 108.343 38.6771 108.073 38.9062C107.823 39.1354 107.583 39.5312 107.354 40.0938L101.885 54.6562C101.385 55.9479 100.906 57.0417 100.448 57.9375C99.9892 58.8542 99.5204 59.5938 99.0413 60.1562C98.5829 60.7188 98.0933 61.125 97.5725 61.375C97.0517 61.6458 96.4788 61.7812 95.8538 61.7812C95.0829 61.7812 94.4475 61.5833 93.9475 61.1875C93.4683 60.8125 93.2288 60.3229 93.2288 59.7188C93.2288 59.2604 93.3746 58.8854 93.6663 58.5938C93.9579 58.3229 94.3225 58.1875 94.76 58.1875C95.0517 58.1875 95.3538 58.2083 95.6663 58.25C95.9788 58.3125 96.2913 58.4062 96.6038 58.5312C96.8121 58.6354 96.9892 58.6979 97.135 58.7188C97.2808 58.7396 97.4058 58.75 97.51 58.75C97.7808 58.75 98.0829 58.6042 98.4163 58.3125C98.7496 58.0417 99.0517 57.6771 99.3225 57.2188C99.4683 56.9479 99.6246 56.6146 99.7913 56.2188C99.9579 55.8438 100.114 55.4688 100.26 55.0938C100.406 54.7188 100.52 54.3646 100.604 54.0312C100.708 53.7188 100.76 53.5 100.76 53.375C100.76 53.0833 100.614 52.625 100.323 52C100.052 51.3542 99.6663 50.5938 99.1663 49.7188C99.0621 49.5729 98.9683 49.4167 98.885 49.25C98.8017 49.0833 98.7288 48.8854 98.6663 48.6562L98.5413 48.375L94.4788 39.5938C94.2288 38.9896 93.6246 38.6042 92.6663 38.4375V37.9375H100.01V38.5C99.2392 38.5417 98.6975 38.6354 98.385 38.7812C98.0933 38.9062 97.9475 39.125 97.9475 39.4375C97.9475 39.6667 97.9683 39.8958 98.01 40.125C98.0725 40.3333 98.1767 40.5625 98.3225 40.8125L102.416 49.8125L105.854 39.9688C105.979 39.7604 106.041 39.5729 106.041 39.4062C106.041 39.1146 105.885 38.8958 105.573 38.75C105.26 38.5833 104.833 38.5 104.291 38.5V37.9375H109.104V38.5Z" fill="#F7F6F1"/>
<path d="M200.984 41.9531C200.859 41.5156 200.734 41.1406 200.609 40.8281C200.484 40.5 200.352 40.2109 200.211 39.9609C200.086 39.6953 199.938 39.4609 199.766 39.2578C199.609 39.0547 199.422 38.8438 199.203 38.625C198.672 38.0781 198.062 37.6719 197.375 37.4062C196.703 37.125 195.984 36.9844 195.219 36.9844C194.25 36.9844 193.367 37.1719 192.57 37.5469C191.789 37.9219 191.117 38.4609 190.555 39.1641C190.008 39.8516 189.586 40.6875 189.289 41.6719C188.992 42.6562 188.844 43.75 188.844 44.9531C188.844 46.5156 189.055 47.8828 189.477 49.0547C189.898 50.2266 190.5 51.1406 191.281 51.7969C192.453 52.7344 193.852 53.2031 195.477 53.2031C196.586 53.2031 197.609 52.9922 198.547 52.5703C199.484 52.1484 200.453 51.4609 201.453 50.5078L201.922 50.9766C201.109 52.0547 200.07 52.8906 198.805 53.4844C197.555 54.0781 196.164 54.375 194.633 54.375C193.305 54.375 192.094 54.1562 191 53.7188C189.906 53.2812 188.969 52.6719 188.188 51.8906C187.406 51.0938 186.797 50.1406 186.359 49.0312C185.938 47.9219 185.727 46.6875 185.727 45.3281C185.727 43.7812 185.992 42.3906 186.523 41.1562C187.055 39.9062 187.836 38.8594 188.867 38.0156C189.68 37.3594 190.594 36.8516 191.609 36.4922C192.625 36.1172 193.648 35.9297 194.68 35.9297C196.008 35.9297 197.32 36.1484 198.617 36.5859C199.055 36.7422 199.406 36.8203 199.672 36.8203C199.938 36.8203 200.164 36.7422 200.352 36.5859C200.555 36.4297 200.695 36.2109 200.773 35.9297H201.336L201.594 41.9531H200.984ZM209.351 41.6953C210.21 41.6953 210.999 41.8438 211.718 42.1406C212.437 42.4375 213.054 42.8594 213.569 43.4062C214.101 43.9375 214.515 44.5703 214.812 45.3047C215.108 46.0391 215.257 46.8516 215.257 47.7422C215.257 48.6797 215.101 49.5469 214.788 50.3438C214.491 51.125 214.077 51.8125 213.546 52.4062C213.015 52.9844 212.382 53.4375 211.647 53.7656C210.929 54.0938 210.147 54.2578 209.304 54.2578C208.46 54.2578 207.679 54.1016 206.96 53.7891C206.241 53.4766 205.624 53.0391 205.108 52.4766C204.593 51.9141 204.187 51.25 203.89 50.4844C203.593 49.7188 203.444 48.8828 203.444 47.9766C203.444 47.0547 203.585 46.2109 203.866 45.4453C204.163 44.6641 204.569 44 205.085 43.4531C205.601 42.8906 206.218 42.4609 206.937 42.1641C207.671 41.8516 208.476 41.6953 209.351 41.6953ZM208.952 42.4453C208.015 42.4453 207.265 42.8281 206.702 43.5938C206.14 44.3594 205.858 45.375 205.858 46.6406C205.858 47.5938 205.96 48.5234 206.163 49.4297C206.366 50.3203 206.655 51.1172 207.03 51.8203C207.312 52.3672 207.687 52.7891 208.155 53.0859C208.624 53.3828 209.132 53.5312 209.679 53.5312C210.663 53.5312 211.429 53.1016 211.976 52.2422C212.538 51.3672 212.819 50.1719 212.819 48.6562C212.819 47.5156 212.655 46.4531 212.327 45.4688C211.999 44.4844 211.554 43.7422 210.991 43.2422C210.694 42.9609 210.382 42.7578 210.054 42.6328C209.726 42.5078 209.358 42.4453 208.952 42.4453ZM216.123 43.0547C216.498 42.9453 216.842 42.8438 217.154 42.75C217.467 42.6406 217.772 42.5312 218.068 42.4219C218.365 42.3125 218.662 42.2031 218.959 42.0938C219.272 41.9688 219.608 41.8359 219.967 41.6953L220.131 41.7422V43.8047C220.725 43.0547 221.326 42.5156 221.936 42.1875C222.561 41.8594 223.248 41.6953 223.998 41.6953C224.639 41.6953 225.233 41.8359 225.779 42.1172C226.326 42.3984 226.795 42.7969 227.186 43.3125C227.592 43.8125 227.904 44.4141 228.123 45.1172C228.358 45.8047 228.475 46.5625 228.475 47.3906C228.475 48.3594 228.326 49.2656 228.029 50.1094C227.748 50.9375 227.35 51.6641 226.834 52.2891C226.334 52.8984 225.74 53.3828 225.053 53.7422C224.365 54.0859 223.623 54.2578 222.826 54.2578C222.545 54.2578 222.287 54.2344 222.053 54.1875C221.834 54.1562 221.623 54.0938 221.42 54C221.217 53.9219 221.006 53.8125 220.787 53.6719C220.584 53.5156 220.365 53.3281 220.131 53.1094V57.3281C220.131 57.75 220.162 58.0859 220.225 58.3359C220.287 58.6016 220.404 58.8047 220.576 58.9453C220.748 59.1016 220.983 59.2031 221.279 59.25C221.592 59.3125 221.998 59.3438 222.498 59.3438V59.8125H216.006V59.3672C216.397 59.3203 216.717 59.2656 216.967 59.2031C217.217 59.1406 217.412 59.0391 217.553 58.8984C217.693 58.7578 217.787 58.5781 217.834 58.3594C217.881 58.1406 217.904 57.8594 217.904 57.5156V45C217.904 44.3594 217.834 43.9453 217.693 43.7578C217.553 43.5547 217.256 43.4531 216.803 43.4531C216.678 43.4531 216.561 43.4531 216.451 43.4531C216.358 43.4531 216.248 43.4609 216.123 43.4766V43.0547ZM220.131 51.6562C220.131 51.8594 220.217 52.0625 220.389 52.2656C220.561 52.4688 220.779 52.6562 221.045 52.8281C221.311 53 221.608 53.1406 221.936 53.25C222.279 53.3594 222.608 53.4141 222.92 53.4141C223.404 53.4141 223.842 53.2969 224.233 53.0625C224.639 52.8125 224.983 52.4766 225.264 52.0547C225.545 51.6172 225.764 51.0938 225.92 50.4844C226.076 49.875 226.154 49.2031 226.154 48.4688C226.154 47.6875 226.076 46.9766 225.92 46.3359C225.764 45.6953 225.537 45.1562 225.24 44.7188C224.959 44.2656 224.615 43.9219 224.209 43.6875C223.803 43.4375 223.35 43.3125 222.85 43.3125C222.537 43.3125 222.217 43.3672 221.889 43.4766C221.576 43.5859 221.287 43.7266 221.022 43.8984C220.756 44.0703 220.537 44.2578 220.365 44.4609C220.209 44.6641 220.131 44.8672 220.131 45.0703V51.6562ZM241.81 42.375C241.497 42.4062 241.239 42.5078 241.036 42.6797C240.849 42.8516 240.669 43.1484 240.497 43.5703L236.396 54.4922C236.021 55.4609 235.661 56.2812 235.318 56.9531C234.974 57.6406 234.622 58.1953 234.263 58.6172C233.919 59.0391 233.552 59.3438 233.161 59.5312C232.771 59.7344 232.341 59.8359 231.872 59.8359C231.294 59.8359 230.818 59.6875 230.443 59.3906C230.083 59.1094 229.903 58.7422 229.903 58.2891C229.903 57.9453 230.013 57.6641 230.232 57.4453C230.45 57.2422 230.724 57.1406 231.052 57.1406C231.271 57.1406 231.497 57.1562 231.732 57.1875C231.966 57.2344 232.2 57.3047 232.435 57.3984C232.591 57.4766 232.724 57.5234 232.833 57.5391C232.943 57.5547 233.036 57.5625 233.114 57.5625C233.318 57.5625 233.544 57.4531 233.794 57.2344C234.044 57.0312 234.271 56.7578 234.474 56.4141C234.583 56.2109 234.7 55.9609 234.825 55.6641C234.95 55.3828 235.068 55.1016 235.177 54.8203C235.286 54.5391 235.372 54.2734 235.435 54.0234C235.513 53.7891 235.552 53.625 235.552 53.5312C235.552 53.3125 235.443 52.9688 235.224 52.5C235.021 52.0156 234.732 51.4453 234.357 50.7891C234.278 50.6797 234.208 50.5625 234.146 50.4375C234.083 50.3125 234.028 50.1641 233.982 49.9922L233.888 49.7812L230.841 43.1953C230.653 42.7422 230.2 42.4531 229.482 42.3281V41.9531H234.989V42.375C234.411 42.4062 234.005 42.4766 233.771 42.5859C233.552 42.6797 233.443 42.8438 233.443 43.0781C233.443 43.25 233.458 43.4219 233.489 43.5938C233.536 43.75 233.614 43.9219 233.724 44.1094L236.794 50.8594L239.372 43.4766C239.466 43.3203 239.513 43.1797 239.513 43.0547C239.513 42.8359 239.396 42.6719 239.161 42.5625C238.927 42.4375 238.607 42.375 238.2 42.375V41.9531H241.81V42.375ZM242.512 43.1719C242.903 43.0312 243.262 42.9062 243.59 42.7969C243.918 42.6719 244.231 42.5547 244.528 42.4453C244.84 42.3203 245.145 42.2031 245.442 42.0938C245.754 41.9688 246.09 41.8359 246.449 41.6953L246.613 41.7422V44.2031C246.942 43.7188 247.238 43.3203 247.504 43.0078C247.77 42.6797 248.028 42.4219 248.278 42.2344C248.528 42.0312 248.77 41.8906 249.004 41.8125C249.254 41.7344 249.52 41.6953 249.801 41.6953C250.254 41.6953 250.613 41.8281 250.879 42.0938C251.145 42.3438 251.278 42.6797 251.278 43.1016C251.278 43.4922 251.184 43.7969 250.996 44.0156C250.809 44.2188 250.559 44.3203 250.246 44.3203C250.074 44.3203 249.903 44.2891 249.731 44.2266C249.574 44.1484 249.387 44 249.168 43.7812C249.028 43.6562 248.895 43.5625 248.77 43.5C248.645 43.4375 248.543 43.4062 248.465 43.4062C248.278 43.4062 248.074 43.4844 247.856 43.6406C247.653 43.7812 247.457 43.9609 247.27 44.1797C247.082 44.3984 246.926 44.6328 246.801 44.8828C246.676 45.1328 246.613 45.3672 246.613 45.5859V51.6094C246.613 51.9844 246.645 52.2969 246.707 52.5469C246.77 52.7969 246.887 53 247.059 53.1562C247.231 53.2969 247.465 53.4062 247.762 53.4844C248.059 53.5625 248.434 53.6094 248.887 53.625V54H242.442V53.625C242.863 53.5469 243.199 53.4688 243.449 53.3906C243.715 53.2969 243.91 53.1875 244.035 53.0625C244.176 52.9375 244.262 52.7734 244.293 52.5703C244.34 52.3516 244.363 52.0781 244.363 51.75V45.0703C244.363 44.4766 244.293 44.0625 244.153 43.8281C244.012 43.5781 243.778 43.4531 243.449 43.4531C243.278 43.4531 243.121 43.4609 242.981 43.4766C242.856 43.4922 242.699 43.5234 242.512 43.5703V43.1719ZM255.87 41.7656V51.2812C255.87 51.7656 255.886 52.1562 255.917 52.4531C255.964 52.7344 256.058 52.9609 256.198 53.1328C256.339 53.2891 256.534 53.3984 256.784 53.4609C257.05 53.5234 257.409 53.5781 257.863 53.625V54H251.511V53.625C251.98 53.5938 252.347 53.5469 252.613 53.4844C252.894 53.4062 253.105 53.2891 253.245 53.1328C253.402 52.9609 253.503 52.7344 253.55 52.4531C253.597 52.1562 253.62 51.7656 253.62 51.2812V45.0703C253.62 44.4766 253.55 44.0625 253.409 43.8281C253.284 43.5781 253.066 43.4531 252.753 43.4531C252.628 43.4531 252.48 43.4609 252.308 43.4766C252.152 43.4922 251.988 43.5156 251.816 43.5469L251.628 43.5703V43.1719L255.753 41.6953L255.87 41.7656ZM254.534 35.7188C254.909 35.7188 255.23 35.8594 255.495 36.1406C255.761 36.4062 255.894 36.7266 255.894 37.1016C255.894 37.4922 255.761 37.8203 255.495 38.0859C255.245 38.3359 254.917 38.4609 254.511 38.4609C254.12 38.4609 253.8 38.3359 253.55 38.0859C253.3 37.8203 253.175 37.4922 253.175 37.1016C253.175 36.7266 253.308 36.4062 253.573 36.1406C253.839 35.8594 254.159 35.7188 254.534 35.7188ZM268.737 43.5938C268.908 44.0469 269.026 44.4453 269.088 44.7891C269.166 45.1172 269.205 45.4844 269.205 45.8906C269.205 46.4531 269.096 46.9844 268.877 47.4844C268.658 47.9844 268.362 48.4297 267.987 48.8203C267.612 49.1953 267.174 49.5 266.674 49.7344C266.174 49.9531 265.635 50.0625 265.057 50.0625C264.979 50.0625 264.846 50.0547 264.658 50.0391C264.487 50.0234 264.283 50 264.049 49.9688L263.533 49.8984C263.346 49.9453 263.158 50.0391 262.971 50.1797C262.783 50.3047 262.612 50.4531 262.455 50.625C262.299 50.7812 262.166 50.9453 262.057 51.1172C261.963 51.2891 261.916 51.4453 261.916 51.5859C261.916 51.7891 262.08 51.9531 262.408 52.0781C262.752 52.1875 263.291 52.2578 264.026 52.2891L267.471 52.4531C268.455 52.5 269.237 52.7812 269.815 53.2969C270.393 53.7969 270.682 54.4609 270.682 55.2891C270.682 56.0703 270.448 56.7422 269.979 57.3047C269.51 57.8828 268.924 58.3594 268.221 58.7344C267.518 59.1094 266.76 59.3828 265.948 59.5547C265.151 59.7422 264.416 59.8359 263.744 59.8359C263.104 59.8359 262.502 59.7656 261.94 59.625C261.377 59.5 260.885 59.3203 260.463 59.0859C260.041 58.8516 259.705 58.5781 259.455 58.2656C259.221 57.9531 259.104 57.6172 259.104 57.2578C259.104 56.7578 259.299 56.2578 259.69 55.7578C260.096 55.2578 260.783 54.6641 261.752 53.9766C261.19 53.7109 260.807 53.4844 260.604 53.2969C260.416 53.0938 260.323 52.8438 260.323 52.5469C260.323 52.2812 260.416 52.0156 260.604 51.75C260.807 51.4688 261.127 51.125 261.565 50.7188L262.713 49.6406C261.807 49.2031 261.158 48.7109 260.768 48.1641C260.393 47.6016 260.205 46.8984 260.205 46.0547C260.205 45.4453 260.323 44.875 260.557 44.3438C260.791 43.7969 261.104 43.3281 261.494 42.9375C261.901 42.5312 262.377 42.2109 262.924 41.9766C263.471 41.7422 264.049 41.625 264.658 41.625C265.377 41.625 266.096 41.7578 266.815 42.0234L267.424 42.2578C267.69 42.3516 267.932 42.4375 268.151 42.5156C268.385 42.5781 268.635 42.6094 268.901 42.6094H270.963V43.5938H268.737ZM262.315 54.0703C262.049 54.3828 261.83 54.6484 261.658 54.8672C261.487 55.0859 261.354 55.2812 261.26 55.4531C261.166 55.625 261.096 55.7812 261.049 55.9219C261.018 56.0625 261.002 56.2109 261.002 56.3672C261.002 56.9609 261.346 57.4297 262.033 57.7734C262.737 58.1328 263.682 58.3125 264.869 58.3125C265.635 58.3125 266.33 58.25 266.955 58.125C267.58 58 268.112 57.8203 268.549 57.5859C269.002 57.3672 269.346 57.0938 269.58 56.7656C269.83 56.4531 269.955 56.1016 269.955 55.7109C269.955 55.2266 269.705 54.8906 269.205 54.7031C268.705 54.5156 267.854 54.4219 266.651 54.4219C266.323 54.4219 265.948 54.4062 265.526 54.375C265.119 54.3594 264.713 54.3359 264.307 54.3047C263.916 54.2734 263.541 54.2344 263.182 54.1875C262.838 54.1562 262.549 54.1172 262.315 54.0703ZM262.432 45.0469C262.432 45.6875 262.494 46.2812 262.619 46.8281C262.76 47.3594 262.948 47.8203 263.182 48.2109C263.432 48.5859 263.721 48.8828 264.049 49.1016C264.393 49.3047 264.776 49.4062 265.198 49.4062C265.791 49.4062 266.268 49.1875 266.627 48.75C266.987 48.2969 267.166 47.6953 267.166 46.9453C267.166 46.3984 267.096 45.8438 266.955 45.2812C266.83 44.7188 266.643 44.2031 266.393 43.7344C266.174 43.3125 265.893 42.9844 265.549 42.75C265.205 42.5 264.83 42.375 264.424 42.375C263.799 42.375 263.307 42.6094 262.948 43.0781C262.604 43.5469 262.432 44.1719 262.432 44.9531V45.0469ZM275.79 51.2812C275.79 51.7344 275.814 52.1094 275.861 52.4062C275.908 52.6875 275.993 52.9141 276.118 53.0859C276.243 53.2422 276.423 53.3594 276.658 53.4375C276.908 53.5156 277.228 53.5781 277.618 53.625V54H271.829V53.625C272.22 53.5625 272.525 53.4922 272.743 53.4141C272.978 53.3359 273.15 53.2188 273.259 53.0625C273.384 52.8906 273.462 52.6719 273.493 52.4062C273.525 52.125 273.54 51.75 273.54 51.2812V38.6719C273.54 38.3906 273.525 38.1641 273.493 37.9922C273.462 37.8047 273.392 37.6641 273.283 37.5703C273.189 37.4609 273.048 37.3906 272.861 37.3594C272.689 37.3281 272.462 37.3125 272.181 37.3125C272.025 37.3125 271.915 37.3203 271.853 37.3359V36.8906L272.579 36.7031C272.954 36.5781 273.283 36.4766 273.564 36.3984C273.845 36.3047 274.103 36.2266 274.337 36.1641C274.572 36.0859 274.79 36.0156 274.993 35.9531C275.197 35.875 275.415 35.7969 275.65 35.7188L275.79 35.8125V43.9688C276.415 43.1406 277.025 42.5547 277.618 42.2109C278.228 41.8672 278.923 41.6953 279.704 41.6953C280.829 41.6953 281.658 42.0547 282.189 42.7734C282.72 43.4922 282.986 44.5547 282.986 45.9609V51.2812C282.986 51.7344 283.001 52.1016 283.033 52.3828C283.064 52.6484 283.134 52.8672 283.243 53.0391C283.368 53.1953 283.54 53.3203 283.759 53.4141C283.978 53.4922 284.267 53.5625 284.626 53.625V54H278.954V53.625C279.345 53.5781 279.658 53.5156 279.892 53.4375C280.126 53.3594 280.306 53.2422 280.431 53.0859C280.572 52.9141 280.658 52.6875 280.689 52.4062C280.736 52.1094 280.759 51.7344 280.759 51.2812V46.0078C280.759 44.1172 280.103 43.1719 278.79 43.1719C278.243 43.1719 277.743 43.2969 277.29 43.5469C276.853 43.7812 276.353 44.2109 275.79 44.8359V51.2812ZM291.633 42.7969H288.914V50.4844C288.914 51.3438 289.024 51.9609 289.243 52.3359C289.461 52.6953 289.813 52.875 290.297 52.875C290.61 52.875 290.883 52.8125 291.118 52.6875C291.352 52.5469 291.625 52.2969 291.938 51.9375L292.266 52.2656C291.422 53.5938 290.344 54.2578 289.032 54.2578C287.453 54.2578 286.664 53.125 286.664 50.8594V42.7969H285.258C285.196 42.7812 285.164 42.7266 285.164 42.6328C285.164 42.4766 285.313 42.3047 285.61 42.1172C286.313 41.7109 287.18 40.7578 288.211 39.2578C288.289 39.1328 288.375 39.0156 288.469 38.9062C288.578 38.7812 288.672 38.6484 288.75 38.5078C288.813 38.5078 288.852 38.5312 288.868 38.5781C288.899 38.625 288.914 38.7188 288.914 38.8594V41.9531H291.633V42.7969ZM309.303 35.9297C310.537 35.9297 311.694 36.1719 312.772 36.6562C313.866 37.1406 314.819 37.8047 315.631 38.6484C316.444 39.4766 317.084 40.4531 317.553 41.5781C318.037 42.6875 318.28 43.8828 318.28 45.1641C318.28 46.4609 318.045 47.6719 317.577 48.7969C317.108 49.9062 316.459 50.875 315.631 51.7031C314.819 52.5312 313.858 53.1875 312.748 53.6719C311.639 54.1406 310.444 54.375 309.162 54.375C307.866 54.375 306.655 54.1406 305.53 53.6719C304.42 53.1875 303.452 52.5312 302.623 51.7031C301.811 50.875 301.162 49.9062 300.678 48.7969C300.209 47.6719 299.975 46.4609 299.975 45.1641C299.975 43.8672 300.209 42.6562 300.678 41.5312C301.162 40.4062 301.827 39.4297 302.67 38.6016C303.514 37.7734 304.498 37.125 305.623 36.6562C306.764 36.1719 307.991 35.9297 309.303 35.9297ZM309.045 37.0547C308.03 37.0547 307.061 37.2734 306.139 37.7109C305.217 38.1484 304.405 38.7344 303.702 39.4688C303.014 40.2031 302.467 41.0625 302.061 42.0469C301.655 43.0156 301.452 44.0469 301.452 45.1406C301.452 46.25 301.655 47.3047 302.061 48.3047C302.467 49.2891 303.022 50.1484 303.725 50.8828C304.428 51.6172 305.248 52.2031 306.186 52.6406C307.123 53.0625 308.116 53.2734 309.162 53.2734C310.209 53.2734 311.194 53.0625 312.116 52.6406C313.053 52.2031 313.866 51.6094 314.553 50.8594C315.241 50.1094 315.787 49.2422 316.194 48.2578C316.6 47.2578 316.803 46.1953 316.803 45.0703C316.803 43.9609 316.6 42.9219 316.194 41.9531C315.787 40.9844 315.233 40.1406 314.53 39.4219C313.827 38.6875 312.998 38.1094 312.045 37.6875C311.108 37.2656 310.108 37.0547 309.045 37.0547ZM313.592 47.3906L313.147 49.4297C313.116 49.5234 312.975 49.6172 312.725 49.7109C312.491 49.8047 312.194 49.8906 311.834 49.9688C311.475 50.0469 311.077 50.1094 310.639 50.1562C310.202 50.2031 309.78 50.2266 309.373 50.2266C308.577 50.2266 307.85 50.1094 307.194 49.875C306.553 49.625 305.998 49.2812 305.53 48.8438C305.061 48.3906 304.694 47.8516 304.428 47.2266C304.178 46.6016 304.053 45.9062 304.053 45.1406C304.053 44.3438 304.194 43.6172 304.475 42.9609C304.756 42.2891 305.155 41.7188 305.67 41.25C306.186 40.7812 306.803 40.4219 307.522 40.1719C308.256 39.9062 309.069 39.7734 309.959 39.7734C310.412 39.7734 310.897 39.8281 311.412 39.9375C311.944 40.0469 312.412 40.1875 312.819 40.3594C313.053 40.4844 313.17 40.6328 313.17 40.8047V42.6797H312.725C312.6 41.8984 312.295 41.3047 311.811 40.8984C311.327 40.4922 310.655 40.2891 309.795 40.2891C308.623 40.2891 307.717 40.6953 307.077 41.5078C306.436 42.3203 306.116 43.4844 306.116 45C306.116 46.4844 306.444 47.6406 307.1 48.4688C307.756 49.2812 308.678 49.6875 309.866 49.6875C310.662 49.6875 311.311 49.5156 311.811 49.1719C312.311 48.8281 312.764 48.2344 313.17 47.3906H313.592ZM330.349 54H319.919V53.6719L324.677 48.6328C325.802 47.4297 326.662 46.2344 327.255 45.0469C327.865 43.8594 328.169 42.7422 328.169 41.6953C328.169 40.5547 327.826 39.6406 327.138 38.9531C326.466 38.25 325.544 37.8984 324.372 37.8984C323.904 37.8984 323.49 37.9609 323.13 38.0859C322.771 38.1953 322.443 38.3906 322.146 38.6719C321.849 38.9375 321.568 39.2891 321.302 39.7266C321.037 40.1641 320.771 40.7109 320.505 41.3672L319.943 41.25C320.052 40.7812 320.162 40.3672 320.271 40.0078C320.396 39.6484 320.521 39.3281 320.646 39.0469C320.787 38.7656 320.935 38.5078 321.091 38.2734C321.247 38.0391 321.435 37.8047 321.654 37.5703C322.154 37.0391 322.732 36.6328 323.388 36.3516C324.06 36.0703 324.763 35.9297 325.497 35.9297C326.201 35.9297 326.849 36.0547 327.443 36.3047C328.052 36.5391 328.576 36.8672 329.013 37.2891C329.466 37.7109 329.818 38.2109 330.068 38.7891C330.333 39.3516 330.466 39.9609 330.466 40.6172C330.466 41.6953 330.185 42.7578 329.622 43.8047C329.076 44.8516 328.216 46.0078 327.044 47.2734L322.544 51.9609H328.919C329.216 51.9609 329.474 51.9453 329.693 51.9141C329.912 51.8672 330.107 51.7812 330.279 51.6562C330.466 51.5312 330.646 51.3516 330.818 51.1172C331.005 50.8828 331.224 50.5703 331.474 50.1797L331.826 50.3438L330.349 54ZM339.137 35.9297C339.997 35.9297 340.786 36.1562 341.504 36.6094C342.239 37.0469 342.872 37.6719 343.403 38.4844C343.934 39.2969 344.34 40.2734 344.622 41.4141C344.918 42.5391 345.067 43.7891 345.067 45.1641C345.067 46.0078 345.004 46.8281 344.879 47.625C344.754 48.4219 344.575 49.1641 344.34 49.8516C344.106 50.5391 343.817 51.1641 343.473 51.7266C343.145 52.2891 342.778 52.75 342.372 53.1094C341.434 53.9531 340.317 54.375 339.02 54.375C338.192 54.375 337.434 54.2109 336.747 53.8828C336.075 53.5391 335.489 53.0469 334.989 52.4062C334.692 52.0156 334.418 51.5469 334.168 51C333.918 50.4375 333.7 49.8359 333.512 49.1953C333.34 48.5391 333.2 47.8594 333.09 47.1562C332.997 46.4375 332.95 45.7266 332.95 45.0234C332.95 44.2109 333.012 43.4141 333.137 42.6328C333.278 41.8359 333.465 41.0938 333.7 40.4062C333.95 39.7188 334.247 39.1016 334.59 38.5547C334.934 37.9922 335.309 37.5312 335.715 37.1719C336.2 36.7344 336.715 36.4219 337.262 36.2344C337.809 36.0312 338.434 35.9297 339.137 35.9297ZM338.973 36.6094C337.848 36.6094 336.997 37.3438 336.418 38.8125C335.84 40.2812 335.551 42.4141 335.551 45.2109C335.551 50.8516 336.708 53.6719 339.02 53.6719C340.161 53.6719 341.02 52.9766 341.598 51.5859C342.192 50.1797 342.489 48.0938 342.489 45.3281C342.489 42.4219 342.192 40.2422 341.598 38.7891C341.02 37.3359 340.145 36.6094 338.973 36.6094ZM356.785 54H346.355V53.6719L351.113 48.6328C352.238 47.4297 353.097 46.2344 353.691 45.0469C354.3 43.8594 354.605 42.7422 354.605 41.6953C354.605 40.5547 354.261 39.6406 353.574 38.9531C352.902 38.25 351.98 37.8984 350.808 37.8984C350.339 37.8984 349.925 37.9609 349.566 38.0859C349.207 38.1953 348.878 38.3906 348.582 38.6719C348.285 38.9375 348.003 39.2891 347.738 39.7266C347.472 40.1641 347.207 40.7109 346.941 41.3672L346.378 41.25C346.488 40.7812 346.597 40.3672 346.707 40.0078C346.832 39.6484 346.957 39.3281 347.082 39.0469C347.222 38.7656 347.371 38.5078 347.527 38.2734C347.683 38.0391 347.871 37.8047 348.089 37.5703C348.589 37.0391 349.167 36.6328 349.824 36.3516C350.496 36.0703 351.199 35.9297 351.933 35.9297C352.636 35.9297 353.285 36.0547 353.878 36.3047C354.488 36.5391 355.011 36.8672 355.449 37.2891C355.902 37.7109 356.253 38.2109 356.503 38.7891C356.769 39.3516 356.902 39.9609 356.902 40.6172C356.902 41.6953 356.621 42.7578 356.058 43.8047C355.511 44.8516 354.652 46.0078 353.48 47.2734L348.98 51.9609H355.355C355.652 51.9609 355.91 51.9453 356.128 51.9141C356.347 51.8672 356.542 51.7812 356.714 51.6562C356.902 51.5312 357.082 51.3516 357.253 51.1172C357.441 50.8828 357.66 50.5703 357.91 50.1797L358.261 50.3438L356.785 54ZM362.854 44.8359C363.307 44.6797 363.698 44.5312 364.026 44.3906C364.37 44.25 364.667 44.1094 364.917 43.9688C365.182 43.8281 365.417 43.6797 365.62 43.5234C365.823 43.3672 366.026 43.1875 366.229 42.9844C366.557 42.6406 366.815 42.2422 367.003 41.7891C367.19 41.3203 367.284 40.8516 367.284 40.3828C367.284 39.5234 367.01 38.8359 366.463 38.3203C365.932 37.7891 365.221 37.5234 364.331 37.5234C363.487 37.5234 362.753 37.75 362.128 38.2031C361.503 38.6406 360.917 39.3594 360.37 40.3594L359.948 40.2422C360.104 39.8516 360.245 39.5078 360.37 39.2109C360.51 38.9141 360.643 38.6484 360.768 38.4141C360.909 38.1797 361.057 37.9688 361.213 37.7812C361.37 37.5938 361.549 37.4062 361.753 37.2188C362.737 36.3594 363.893 35.9297 365.221 35.9297C366.471 35.9297 367.471 36.2656 368.221 36.9375C368.987 37.5938 369.37 38.4766 369.37 39.5859C369.37 39.9453 369.323 40.2812 369.229 40.5938C369.151 40.9062 369.018 41.2109 368.831 41.5078C368.643 41.7891 368.385 42.0781 368.057 42.375C367.745 42.6562 367.354 42.9609 366.885 43.2891C367.479 43.5391 367.932 43.7656 368.245 43.9688C368.557 44.1562 368.854 44.3984 369.135 44.6953C369.51 45.1016 369.792 45.6094 369.979 46.2188C370.182 46.8125 370.284 47.4609 370.284 48.1641C370.284 49.1016 370.104 49.9609 369.745 50.7422C369.401 51.5234 368.893 52.1875 368.221 52.7344C367.565 53.2344 366.76 53.6328 365.807 53.9297C364.87 54.2266 363.901 54.375 362.901 54.375C361.979 54.375 361.253 54.2422 360.721 53.9766C360.19 53.6953 359.924 53.3203 359.924 52.8516C359.924 52.5703 360.01 52.3438 360.182 52.1719C360.37 52 360.62 51.9141 360.932 51.9141C361.167 51.9141 361.409 51.9688 361.659 52.0781C361.909 52.1719 362.229 52.3438 362.62 52.5938C363.12 52.9062 363.526 53.125 363.838 53.25C364.167 53.3594 364.518 53.4141 364.893 53.4141C365.393 53.4141 365.854 53.3125 366.276 53.1094C366.698 52.9062 367.065 52.6328 367.378 52.2891C367.69 51.9297 367.932 51.5078 368.104 51.0234C368.276 50.5234 368.362 49.9922 368.362 49.4297C368.362 48.4922 368.112 47.6641 367.612 46.9453C367.128 46.2266 366.456 45.7266 365.596 45.4453C365.299 45.3359 364.956 45.2656 364.565 45.2344C364.19 45.1875 363.62 45.1641 362.854 45.1641V44.8359Z" fill="#A8A8A8"/>
</svg>
